<mxfile host="app.diagrams.net" modified="2020-09-05T23:57:33.514Z" agent="5.0 (Windows NT 10.0; Win64; x64) AppleWebKit/537.36 (KHTML, like Gecko) Chrome/85.0.4183.83 Safari/537.36" etag="eDlF2juzhKAwcyf6-VyT" version="13.6.6" type="github">
  <diagram id="PzdsqFYze9PLqQKWdxL9" name="Page-1">
    <mxGraphModel dx="1038" dy="580" grid="1" gridSize="10" guides="1" tooltips="1" connect="1" arrows="1" fold="1" page="1" pageScale="1" pageWidth="827" pageHeight="1169" math="0" shadow="0">
      <root>
        <mxCell id="0" />
        <mxCell id="1" parent="0" />
        <mxCell id="enhUUo9FGzFN_Y-iLMnq-7" value="" style="edgeStyle=orthogonalEdgeStyle;rounded=0;orthogonalLoop=1;jettySize=auto;html=1;" edge="1" parent="1" source="enhUUo9FGzFN_Y-iLMnq-1" target="enhUUo9FGzFN_Y-iLMnq-6">
          <mxGeometry relative="1" as="geometry" />
        </mxCell>
        <mxCell id="enhUUo9FGzFN_Y-iLMnq-1" value="&lt;font style=&quot;font-size: 35px&quot;&gt;Start&lt;/font&gt;" style="rounded=1;whiteSpace=wrap;html=1;" vertex="1" parent="1">
          <mxGeometry x="330" y="20" width="120" height="50" as="geometry" />
        </mxCell>
        <mxCell id="enhUUo9FGzFN_Y-iLMnq-9" value="" style="edgeStyle=orthogonalEdgeStyle;rounded=0;orthogonalLoop=1;jettySize=auto;html=1;" edge="1" parent="1" source="enhUUo9FGzFN_Y-iLMnq-6" target="enhUUo9FGzFN_Y-iLMnq-8">
          <mxGeometry relative="1" as="geometry" />
        </mxCell>
        <mxCell id="enhUUo9FGzFN_Y-iLMnq-6" value="&lt;font style=&quot;font-size: 20px&quot;&gt;Read num1 &amp;amp; num2&lt;/font&gt;" style="shape=parallelogram;perimeter=parallelogramPerimeter;whiteSpace=wrap;html=1;fixedSize=1;rounded=1;" vertex="1" parent="1">
          <mxGeometry x="260" y="100" width="260" height="85" as="geometry" />
        </mxCell>
        <mxCell id="enhUUo9FGzFN_Y-iLMnq-11" value="" style="edgeStyle=orthogonalEdgeStyle;rounded=0;orthogonalLoop=1;jettySize=auto;html=1;" edge="1" parent="1" source="enhUUo9FGzFN_Y-iLMnq-8" target="enhUUo9FGzFN_Y-iLMnq-10">
          <mxGeometry relative="1" as="geometry" />
        </mxCell>
        <mxCell id="enhUUo9FGzFN_Y-iLMnq-8" value="&lt;font style=&quot;font-size: 20px&quot;&gt;result = num1 + num2&lt;/font&gt;" style="rounded=0;whiteSpace=wrap;html=1;" vertex="1" parent="1">
          <mxGeometry x="280" y="220" width="220" height="80" as="geometry" />
        </mxCell>
        <mxCell id="enhUUo9FGzFN_Y-iLMnq-13" value="" style="edgeStyle=orthogonalEdgeStyle;rounded=0;orthogonalLoop=1;jettySize=auto;html=1;" edge="1" parent="1" source="enhUUo9FGzFN_Y-iLMnq-10" target="enhUUo9FGzFN_Y-iLMnq-12">
          <mxGeometry relative="1" as="geometry" />
        </mxCell>
        <mxCell id="enhUUo9FGzFN_Y-iLMnq-10" value="&lt;font style=&quot;font-size: 20px&quot;&gt;print result&lt;/font&gt;" style="shape=parallelogram;perimeter=parallelogramPerimeter;whiteSpace=wrap;html=1;fixedSize=1;rounded=0;" vertex="1" parent="1">
          <mxGeometry x="310" y="340" width="160" height="80" as="geometry" />
        </mxCell>
        <mxCell id="enhUUo9FGzFN_Y-iLMnq-12" value="&lt;span style=&quot;font-size: 35px&quot;&gt;Stop&lt;/span&gt;" style="rounded=1;whiteSpace=wrap;html=1;" vertex="1" parent="1">
          <mxGeometry x="330" y="460" width="120" height="60" as="geometry" />
        </mxCell>
      </root>
    </mxGraphModel>
  </diagram>
</mxfile>
